<?xml version="1.0" encoding="UTF-8" standalone="no"?>
<svg
   id="Layer_1"
   data-name="Layer 1"
   viewBox="0 0 220 220"
   version="1.1"
   width="220"
   height="220"
   xmlns="http://www.w3.org/2000/svg"
   xmlns:svg="http://www.w3.org/2000/svg">
  <defs
     id="defs4">
    <style
       id="style2">.cls-1{fill:#7ec18a;}.cls-2{fill:#77c9d9;}.cls-3{fill:#312783;}</style>
  </defs>
  <path
     style="fill:#ffffff;fill-opacity:1;stroke-width:0.9916"
     d="M 119.05516,203.95281 32.392488,153.5074 c -0.111622,-0.0743 -0.217111,-0.15777 -0.315426,-0.2494 v 0 c -0.07737,-0.0828 -0.1467,-0.17303 -0.206996,-0.26932 v -0.0698 c -0.05205,-0.0942 -0.09186,-0.19476 -0.118285,-0.29926 -0.005,-0.0531 -0.005,-0.10656 0,-0.15962 -0.005,-0.0797 -0.005,-0.15966 0,-0.23941 v 0 0 l 0.39428,-16.0803 v -1.15713 l 2.020684,-88.311913 v 0 0 0 c 0.0273,-0.60772 0.417788,-1.137261 0.9857,-1.336699 L 99.222902,14.670239 c 0.396402,-0.18898 0.855428,-0.18898 1.251808,0 l 21.16298,9.865638 c 0.51288,0.240061 0.8457,0.754977 0.85755,1.326724 0.004,0.169755 -0.0221,0.338858 -0.0788,0.498769 0.0508,0.151026 0.0774,0.309305 0.0788,0.46884 v 10.065147 l 61.77379,38.455041 v 0 c 0.0975,0.06544 0.18676,0.142508 0.26612,0.229433 v 0 c 0.074,0.07711 0.13718,0.164444 0.1873,0.25936 v 0.08978 c 0.0399,0.07901 0.0694,0.162818 0.0888,0.249382 v 0.08978 c 0.0102,0.116154 0.0102,0.232984 0,0.349137 v 0 l -1.09414,49.41796 c 0.005,0.0398 0.005,0.08 0,0.1197 0.0104,0.0628 0.0104,0.12679 0,0.18953 -0.0707,0.32781 -0.25197,0.62049 -0.51257,0.82796 l -0.0591,0.0499 c -1.72616,1.245 -2.79108,3.22384 -2.8881,5.36673 -0.0846,2.09742 0.71017,4.13345 2.18825,5.60617 0.60512,0.21294 1.00403,0.79833 0.98569,1.44644 l -0.65056,29.28767 c -0.009,0.53249 -0.2982,1.01957 -0.75899,1.27685 l -60.42337,33.74665 c -0.21946,0.12544 -0.4675,0.19078 -0.71955,0.18954 -0.21184,-0.006 -0.42008,-0.0569 -0.61115,-0.14963 -0.0928,0.0512 -0.19231,0.0882 -0.2957,0.10972 -0.10489,0.0104 -0.21054,0.0104 -0.31542,0 -0.20572,0.005 -0.41034,-0.032 -0.60127,-0.10972 z"
     id="path405" />
  <path
     class="cls-1"
     d="m 179.23375,136.56209 v 0 a 9.17,9.17 0 0 0 1.63,3 z"
     id="path6" />
  <path
     class="cls-1"
     d="m 149.53375,97.44209 33.63,-18.120005 c -0.78,34.429995 -1,43.650005 -1,46.110005 l -59.93,32.28 0.4,-38.79 v 0 l 0.23,-21.74 24.49,-12 v 10.9 c 0,0 0,0 0,0.07 0,0.07 0,0.1 0,0.15999 v 0.14 c 0,0 0,0.09 0,0.13 a 0.77,0.77 0 0 0 0.07,0.16 c 0,0 0,0 0,0 v 0 a 1.35,1.35 0 0 0 0.2,0.27 c 0,0 0,0 0,0 l 0.28,0.22 h 0.09 l 0.25,0.11 h 0.09 a 2.09,2.09 0 0 0 0.35,0 v 0 a 1.55,1.55 0 0 0 0.31,0 0.32,0.32 0 0 0 0.09,0 0.92,0.92 0 0 0 0.23,-0.09 z"
     id="path8" />
  <path
     class="cls-1"
     d="m 181.74375,142.41209 -0.59,26 -59.53,32.88 0.4,-25.9 c 6.25,-3.45 49,-27.07 59.72,-32.98 z"
     id="path10" />
  <path
     class="cls-2"
     d="m 181.71375,76.692085 -31.39,16.920005 v -10.79 a 1.19,1.19 0 0 0 0,-0.33 c 0,0 0,0 0,-0.06 0,-0.06 -0.07,-0.19 -0.11,-0.28 l -0.05,-0.09 -0.17,-0.239995 a 0.1,0.1 0 0 1 0,-0.05 1.93,1.93 0 0 0 -0.28,-0.22 v 0 l -8.78,-5.28 4.19,-2.15 h 0.06 l 0.14,-0.09 0.11,-0.09 0.11,-0.11 0.09,-0.11 0.08,-0.12 0.07,-0.12 0.06,-0.14 v -0.13 -0.14 a 0.92,0.92 0 0 0 0,-0.16 0.28,0.28 0 0 0 0,-0.09 v -13.36 a 1.66,1.66 0 0 0 0,-0.32 c 0,0 0,0 0,0 a 1.42,1.42 0 0 0 -0.1,-0.29 l -0.05,-0.09 c -0.05,-0.07 -0.1,-0.15 -0.16,-0.22 l -0.05,-0.06 a 1.18,1.18 0 0 0 -0.27,-0.23 v 0 l -18.93,-11.9 a 1.49,1.49 0 0 0 -1.5,-0.06 l -17.93,9.53 -7.22,-4.34 21.66,-12 z"
     id="path12" />
  <path
     class="cls-3"
     d="m 181.74375,142.41209 c -10.72,5.91 -53.47,29.53 -59.72,33 l -0.4,25.9 59.53,-32.86 z m -38.93,-70.560005 v -9.94 l -13.94,7.16 8.91,5.36 z m 4.51,24.270005 v -10.9 l -24.49,11.99999 -0.23,21.74001 v 0 l -0.4,38.79 59.93,-32.28 c 0.06,-2.46 0.26,-11.68001 1,-46.110005 l -33.63,18.119995 h -0.05 a 0.92,0.92 0 0 1 -0.23,0.09 0.32,0.32 0 0 1 -0.09,0 1.55,1.55 0 0 1 -0.31,0 v 0 a 2.09,2.09 0 0 1 -0.35,0 h -0.09 l -0.25,-0.11 h -0.09 l -0.28,-0.22 c 0,0 0,0 0,0 a 1.35,1.35 0 0 1 -0.2,-0.27 v 0 c 0,0 0,0 0,0 a 0.77,0.77 0 0 1 -0.07,-0.16 c 0,0 0,-0.08 0,-0.12999 v -0.14 c 0,-0.06 0,-0.11 0,-0.16 0,-0.05 -0.17,-0.23 -0.17,-0.26 z m -72.37,-24.410005 -40.18,40.180005 -0.56,20.15 53.21,-53.160005 z m -15.12,-8.71 -24.41,24.379995 -0.53,20.18 37.36,-37.399995 z m -24.25,19.999995 21.56,-21.549995 -13.07,-7.54 -0.57,0.57 -2.08,-2.12 -5.16,-3 v 8.2 l 2.12,2.12 -2.17,2.17 z m 1.4,70.60001 65.83,-65.83001 -12.75,-7.349995 -56,56.000005 -0.42,15.29 z m 15.13,8.7 65.81,-65.82001 -12.42,-7.16 -65.83,65.84001 z m 44.55,-112.600005 23.17,-12.8 v -8.57 l -31.66,16.23 z m 3,1.78 7.22,4.34 17.93,-9.53 a 1.49,1.49 0 0 1 1.5,0.06 l 18.83,11.84 v 0 a 1.18,1.18 0 0 1 0.27,0.23 l 0.05,0.06 c 0.06,0.07 0.11,0.15 0.16,0.22 l 0.05,0.09 a 1.42,1.42 0 0 1 0.1,0.29 c 0,0 0,0 0,0 a 1.66,1.66 0 0 1 0,0.32 v 13.36 a 0.28,0.28 0 0 1 0,0.09 0.92,0.92 0 0 1 0,0.16 v 0.14 0.13 l -0.06,0.14 -0.07,0.12 -0.08,0.12 -0.09,0.11 -0.11,0.11 -0.11,0.09 -0.14,0.09 h -0.06 l -4.19,2.15 8.73,5.35 v 0 a 1.93,1.93 0 0 1 0.28,0.22 0.1,0.1 0 0 0 0,0.05 l 0.17,0.239995 0.05,0.09 c 0,0.09 0.08,0.19 0.11,0.28 0.03,0.09 0,0 0,0.06 a 1.19,1.19 0 0 1 0,0.33 v 10.79001 l 31.39,-16.920005 -60.3,-37.14 z m 16,115.620005 a 10.38,10.38 0 0 1 3.59,-7.55 l 0.13,-12 -33.96,33.9 12.43,7.16 18.21,-18.21 a 10.44,10.44 0 0 1 -0.48,-3.3 z m 0.05,31.76 3,1.71 v -4.7 z m -2.69,-1.55 5.7,-5.7 0.07,-16.77 a 11,11 0 0 1 -1.32,-1.57 l -16.97,16.89 z m -30.34,-17.41 36.66,-36.66 0.22,-20.31 -12.14,12.13 -0.3,0.3 -37.19,37.2 z m 22.62,-47 14.3,-14.29 0.21,-19.80001 -65,65.00001 12.43,7.15 37.77,-37.77 z m 13.28,34.25 a 7.43,7.43 0 0 0 2.16,5.48 l 59.94,-33.07 a 10.27,10.27 0 0 1 -2.12,-6.79 9.71,9.71 0 0 1 0.36,-2.22 l -57.39,30.91 a 7.45,7.45 0 0 0 -2.95,5.73 z m 0.76,37.27 -87.92,-50.57 a 2.51,2.51 0 0 1 -0.32,-0.25 v 0 a 1.78,1.78 0 0 1 -0.21,-0.27 c 0,0 0,-0.05 0,-0.07 a 1.25,1.25 0 0 1 -0.12,-0.3 0.78,0.78 0 0 1 0,-0.16 2,2 0 0 1 0,-0.24 v 0 0 l 0.4,-16.12 v -1.16 l 2.05,-88.530005 v 0 0 0 a 1.49,1.49 0 0 1 1,-1.34 l 65,-30.74 a 1.49,1.49 0 0 1 1.27,0 l 21.47,9.89 a 1.5,1.5 0 0 1 0.87,1.33 1.38,1.38 0 0 1 -0.08,0.5 1.5,1.5 0 0 1 0.08,0.47 v 10.09 l 62.67,38.55 v 0 a 1.49,1.49 0 0 1 0.27,0.23 v 0 a 1.15,1.15 0 0 1 0.19,0.26 v 0.09 a 1.06,1.06 0 0 1 0.09,0.25 v 0.09 a 2,2 0 0 1 0,0.35 v 0 l -1.11,49.540005 a 0.49,0.49 0 0 1 0,0.12 0.58,0.58 0 0 1 0,0.19 1.45,1.45 0 0 1 -0.52,0.83 l -0.06,0.05 a 7,7 0 0 0 -2.93,5.38 7.46,7.46 0 0 0 2.22,5.62 1.49,1.49 0 0 1 1,1.45 l -0.66,29.36 a 1.49,1.49 0 0 1 -0.77,1.28 l -61.3,33.83 a 1.47,1.47 0 0 1 -0.73,0.19 1.53,1.53 0 0 1 -0.62,-0.15 1.08,1.08 0 0 1 -0.3,0.11 1.65,1.65 0 0 1 -0.32,0 1.53,1.53 0 0 1 -0.61,-0.11 z"
     id="path14" />
  <rect
     class="cls-3"
     x="-15.062792"
     y="66.281349"
     width="7.3000002"
     height="3"
     transform="rotate(-45)"
     id="rect16" />
</svg>
